{
  "source": "/home/miles/Documents/abstract-data-pipeline/plugins/midi/source/hf_repo_files/10_soul-groove10_102_beat_4-4.mid",
  "ticks_per_beat": 480,
  "length_seconds": 37.46566754166666,
  "events": [
    {
      "type": "note_on",
      "pitch": 36,
      "velocity": 74,
      "time": 0.0
    },
    {
      "type": "note_on",
      "pitch": 42,
      "velocity": 124,
      "time": 0.0
    },
    {
      "type": "note_off",
      "pitch": 36,
      "time": 0.07843133333333333
    },
    {
      "type": "note_off",
      "pitch": 42,
      "time": 0.09191171875
    },
    {
      "type": "note_on",
      "pitch": 36,
      "velocity": 52,
      "time": 0.13112738541666666
    },
    {
      "type": "note_off",
      "pitch": 36,
      "time": 0.23161753124999998
    },
    {
      "type": "note_on",
      "pitch": 42,
      "velocity": 117,
      "time": 0.28186260416666664
    },
    {
      "type": "note_off",
      "pitch": 42,
      "time": 0.3835782395833333
    },
    {
      "type": "note_on",
      "pitch": 38,
      "velocity": 127,
      "time": 0.5906859791666667
    },
    {
      "type": "note_on",
      "pitch": 42,
      "velocity": 127,
      "time": 0.5943624479166667
    },
    {
      "type": "note_off",
      "pitch": 38,
      "time": 0.691176125
    },
    {
      "type": "note_off",
      "pitch": 42,
      "time": 0.6948525937500001
    },
    {
      "type": "note_on",
      "pitch": 42,
      "velocity": 112,
      "time": 0.8823525000000001
    },
    {
      "type": "note_off",
      "pitch": 42,
      "time": 0.9840681354166667
    },
    {
      "type": "note_on",
      "pitch": 38,
      "velocity": 10,
      "time": 1.1740190208333334
    },
    {
      "type": "note_on",
      "pitch": 42,
      "velocity": 87,
      "time": 1.1740190208333334
    },
    {
      "type": "note_off",
      "pitch": 38,
      "time": 1.2745091666666668
    },
    {
      "type": "note_off",
      "pitch": 42,
      "time": 1.2745091666666668
    },
    {
      "type": "note_on",
      "pitch": 38,
      "velocity": 35,
      "time": 1.3431365833333335
    },
    {
      "type": "note_on",
      "pitch": 38,
      "velocity": 38,
      "time": 1.3799012708333336
    },
    {
      "type": "note_off",
      "pitch": 38,
      "time": 1.3799012708333336
    },
    {
      "type": "note_on",
      "pitch": 38,
      "velocity": 33,
      "time": 1.4044110625000001
    },
    {
      "type": "note_off",
      "pitch": 38,
      "time": 1.4044110625000001
    },
    {
      "type": "note_off",
      "pitch": 38,
      "time": 1.443626729166667
    },
    {
      "type": "note_on",
      "pitch": 42,
      "velocity": 73,
      "time": 1.4534306458333335
    },
    {
      "type": "note_on",
      "pitch": 36,
      "velocity": 93,
      "time": 1.4571071145833334
    },
    {
      "type": "note_off",
      "pitch": 42,
      "time": 1.55514628125
    },
    {
      "type": "note_off",
      "pitch": 36,
      "time": 1.5575972604166668
    },
    {
      "type": "note_on",
      "pitch": 40,
      "velocity": 111,
      "time": 1.7659304895833334
    },
    {
      "type": "note_on",
      "pitch": 42,
      "velocity": 127,
      "time": 1.7659304895833334
    },
    {
      "type": "note_off",
      "pitch": 40,
      "time": 1.8664206354166668
    },
    {
      "type": "note_off",
      "pitch": 42,
      "time": 1.8664206354166668
    },
    {
      "type": "note_on",
      "pitch": 36,
      "velocity": 8,
      "time": 2.0514695625000003
    },
    {
      "type": "note_on",
      "pitch": 42,
      "velocity": 102,
      "time": 2.067400927083334
    },
    {
      "type": "note_off",
      "pitch": 36,
      "time": 2.151959708333334
    },
    {
      "type": "note_off",
      "pitch": 42,
      "time": 2.1691165625000006
    },
    {
      "type": "note_on",
      "pitch": 36,
      "velocity": 76,
      "time": 2.3639694062500007
    },
    {
      "type": "note_on",
      "pitch": 42,
      "velocity": 127,
      "time": 2.367645875000001
    },
    {
      "type": "note_off",
      "pitch": 36,
      "time": 2.4644595520833343
    },
    {
      "type": "note_off",
      "pitch": 42,
      "time": 2.4693615104166677
    },
    {
      "type": "note_on",
      "pitch": 36,
      "velocity": 57,
      "time": 2.540439906250001
    },
    {
      "type": "note_off",
      "pitch": 36,
      "time": 2.640930052083334
    },
    {
      "type": "note_on",
      "pitch": 42,
      "velocity": 81,
      "time": 2.6678908229166676
    },
    {
      "type": "note_off",
      "pitch": 42,
      "time": 2.7696064583333344
    },
    {
      "type": "note_on",
      "pitch": 38,
      "velocity": 122,
      "time": 2.977939687500001
    },
    {
      "type": "note_on",
      "pitch": 42,
      "velocity": 127,
      "time": 2.981616156250001
    },
    {
      "type": "note_off",
      "pitch": 38,
      "time": 3.079655322916668
    },
    {
      "type": "note_off",
      "pitch": 42,
      "time": 3.0821063020833344
    },
    {
      "type": "note_on",
      "pitch": 42,
      "velocity": 111,
      "time": 3.2622532708333343
    },
    {
      "type": "note_off",
      "pitch": 42,
      "time": 3.363968906250001
    },
    {
      "type": "note_on",
      "pitch": 38,
      "velocity": 28,
      "time": 3.4166649583333344
    },
    {
      "type": "note_on",
      "pitch": 38,
      "velocity": 22,
      "time": 3.503674718750001
    },
    {
      "type": "note_off",
      "pitch": 38,
      "time": 3.503674718750001
    },
    {
      "type": "note_off",
      "pitch": 38,
      "time": 3.5171551041666675
    },
    {
      "type": "note_on",
      "pitch": 38,
      "velocity": 18,
      "time": 3.540439406250001
    },
    {
      "type": "note_on",
      "pitch": 42,
      "velocity": 96,
      "time": 3.5453413645833343
    },
    {
      "type": "note_off",
      "pitch": 38,
      "time": 3.604164864583334
    },
    {
      "type": "note_off",
      "pitch": 42,
      "time": 3.6458315104166674
    },
    {
      "type": "note_on",
      "pitch": 38,
      "velocity": 36,
      "time": 3.714458927083334
    },
    {
      "type": "note_off",
      "pitch": 38,
      "time": 3.8149490729166673
    },
    {
      "type": "note_on",
      "pitch": 36,
      "velocity": 78,
      "time": 3.8259784791666673
    },
    {
      "type": "note_on",
      "pitch": 42,
      "velocity": 70,
      "time": 3.8272039687500006
    },
    {
      "type": "note_off",
      "pitch": 36,
      "time": 3.9276941145833337
    },
    {
      "type": "note_off",
      "pitch": 42,
      "time": 3.928919604166667
    },
    {
      "type": "note_on",
      "pitch": 38,
      "velocity": 127,
      "time": 4.115194020833334
    },
    {
      "type": "note_on",
      "pitch": 42,
      "velocity": 127,
      "time": 4.117645
    },
    {
      "type": "note_off",
      "pitch": 38,
      "time": 4.21690965625
    },
    {
      "type": "note_off",
      "pitch": 42,
      "time": 4.219360635416667
    },
    {
      "type": "note_on",
      "pitch": 36,
      "velocity": 9,
      "time": 4.365193895833333
    },
    {
      "type": "note_on",
      "pitch": 42,
      "velocity": 118,
      "time": 4.4142134791666665
    },
    {
      "type": "note_off",
      "pitch": 36,
      "time": 4.46690953125
    },
    {
      "type": "note_off",
      "pitch": 42,
      "time": 4.515929114583333
    },
    {
      "type": "note_on",
      "pitch": 36,
      "velocity": 78,
      "time": 4.70588
    },
    {
      "type": "note_on",
      "pitch": 42,
      "velocity": 127,
      "time": 4.710781958333333
    },
    {
      "type": "note_off",
      "pitch": 36,
      "time": 4.806370145833332
    },
    {
      "type": "note_off",
      "pitch": 42,
      "time": 4.811272104166665
    },
    {
      "type": "note_on",
      "pitch": 36,
      "velocity": 48,
      "time": 4.876223052083332
    },
    {
      "type": "note_off",
      "pitch": 36,
      "time": 4.977938687499998
    },
    {
      "type": "note_on",
      "pitch": 42,
      "velocity": 80,
      "time": 5.014703374999998
    },
    {
      "type": "note_off",
      "pitch": 42,
      "time": 5.1164190104166645
    },
    {
      "type": "note_on",
      "pitch": 38,
      "velocity": 126,
      "time": 5.317399302083331
    },
    {
      "type": "note_on",
      "pitch": 42,
      "velocity": 127,
      "time": 5.319850281249997
    },
    {
      "type": "note_off",
      "pitch": 38,
      "time": 5.4178894479166635
    },
    {
      "type": "note_off",
      "pitch": 42,
      "time": 5.421565916666664
    },
    {
      "type": "note_on",
      "pitch": 42,
      "velocity": 90,
      "time": 5.617644249999997
    },
    {
      "type": "note_off",
      "pitch": 42,
      "time": 5.719359885416663
    },
    {
      "type": "note_on",
      "pitch": 42,
      "velocity": 70,
      "time": 5.906859791666664
    },
    {
      "type": "note_off",
      "pitch": 42,
      "time": 6.00857542708333
    },
    {
      "type": "note_on",
      "pitch": 38,
      "velocity": 33,
      "time": 6.069849906249996
    },
    {
      "type": "note_on",
      "pitch": 38,
      "velocity": 36,
      "time": 6.110291062499996
    },
    {
      "type": "note_off",
      "pitch": 38,
      "time": 6.110291062499996
    },
    {
      "type": "note_on",
      "pitch": 38,
      "velocity": 33,
      "time": 6.138477322916663
    },
    {
      "type": "note_off",
      "pitch": 38,
      "time": 6.138477322916663
    },
    {
      "type": "note_off",
      "pitch": 38,
      "time": 6.17034005208333
    },
    {
      "type": "note_on",
      "pitch": 36,
      "velocity": 80,
      "time": 6.18504592708333
    },
    {
      "type": "note_on",
      "pitch": 42,
      "velocity": 59,
      "time": 6.193624354166663
    },
    {
      "type": "note_off",
      "pitch": 36,
      "time": 6.286761562499996
    },
    {
      "type": "note_off",
      "pitch": 42,
      "time": 6.295339989583329
    },
    {
      "type": "note_on",
      "pitch": 40,
      "velocity": 122,
      "time": 6.4742614687499955
    },
    {
      "type": "note_on",
      "pitch": 42,
      "velocity": 123,
      "time": 6.4742614687499955
    },
    {
      "type": "note_off",
      "pitch": 40,
      "time": 6.575977104166662
    },
    {
      "type": "note_off",
      "pitch": 42,
      "time": 6.575977104166662
    },
    {
      "type": "note_on",
      "pitch": 36,
      "velocity": 8,
      "time": 6.7218103645833285
    },
    {
      "type": "note_on",
      "pitch": 42,
      "velocity": 106,
      "time": 6.773280927083328
    },
    {
      "type": "note_off",
      "pitch": 36,
      "time": 6.822300510416661
    },
    {
      "type": "note_off",
      "pitch": 42,
      "time": 6.8749965624999945
    },
    {
      "type": "note_on",
      "pitch": 36,
      "velocity": 74,
      "time": 7.075976854166661
    },
    {
      "type": "note_on",
      "pitch": 42,
      "velocity": 127,
      "time": 7.082104302083327
    },
    {
      "type": "note_off",
      "pitch": 36,
      "time": 7.176466999999994
    },
    {
      "type": "note_off",
      "pitch": 42,
      "time": 7.183819937499995
    },
    {
      "type": "note_on",
      "pitch": 36,
      "velocity": 55,
      "time": 7.246319906249995
    },
    {
      "type": "note_off",
      "pitch": 36,
      "time": 7.346810052083328
    },
    {
      "type": "note_on",
      "pitch": 42,
      "velocity": 72,
      "time": 7.377447291666662
    },
    {
      "type": "note_off",
      "pitch": 42,
      "time": 7.477937437499995
    },
    {
      "type": "note_on",
      "pitch": 38,
      "velocity": 127,
      "time": 7.666662833333328
    },
    {
      "type": "note_on",
      "pitch": 42,
      "velocity": 127,
      "time": 7.6740157708333285
    },
    {
      "type": "note_off",
      "pitch": 38,
      "time": 7.7683784687499955
    },
    {
      "type": "note_off",
      "pitch": 42,
      "time": 7.776956895833329
    },
    {
      "type": "note_on",
      "pitch": 42,
      "velocity": 90,
      "time": 7.959554843749995
    },
    {
      "type": "note_off",
      "pitch": 42,
      "time": 8.060044989583329
    },
    {
      "type": "note_on",
      "pitch": 38,
      "velocity": 13,
      "time": 8.153182197916662
    },
    {
      "type": "note_on",
      "pitch": 38,
      "velocity": 16,
      "time": 8.176466499999995
    },
    {
      "type": "note_off",
      "pitch": 38,
      "time": 8.176466499999995
    },
    {
      "type": "note_on",
      "pitch": 42,
      "velocity": 98,
      "time": 8.245093916666661
    },
    {
      "type": "note_off",
      "pitch": 38,
      "time": 8.253672343749995
    },
    {
      "type": "note_off",
      "pitch": 42,
      "time": 8.346809552083329
    },
    {
      "type": "note_on",
      "pitch": 38,
      "velocity": 36,
      "time": 8.408084031249995
    },
    {
      "type": "note_off",
      "pitch": 38,
      "time": 8.509799666666662
    },
    {
      "type": "note_on",
      "pitch": 36,
      "velocity": 83,
      "time": 8.533083968749995
    },
    {
      "type": "note_on",
      "pitch": 42,
      "velocity": 79,
      "time": 8.535534947916663
    },
    {
      "type": "note_off",
      "pitch": 36,
      "time": 8.634799604166663
    },
    {
      "type": "note_off",
      "pitch": 42,
      "time": 8.636025093749996
    },
    {
      "type": "note_on",
      "pitch": 38,
      "velocity": 127,
      "time": 8.825975979166662
    },
    {
      "type": "note_on",
      "pitch": 42,
      "velocity": 127,
      "time": 8.827201468749996
    },
    {
      "type": "note_off",
      "pitch": 38,
      "time": 8.926466124999996
    },
    {
      "type": "note_off",
      "pitch": 42,
      "time": 8.928917104166663
    },
    {
      "type": "note_on",
      "pitch": 36,
      "velocity": 9,
      "time": 9.094358197916662
    },
    {
      "type": "note_on",
      "pitch": 42,
      "velocity": 88,
      "time": 9.121318968749996
    },
    {
      "type": "note_off",
      "pitch": 36,
      "time": 9.194848343749996
    },
    {
      "type": "note_off",
      "pitch": 42,
      "time": 9.22180911458333
    },
    {
      "type": "note_on",
      "pitch": 36,
      "velocity": 81,
      "time": 9.414210979166663
    },
    {
      "type": "note_on",
      "pitch": 42,
      "velocity": 127,
      "time": 9.42033842708333
    },
    {
      "type": "note_off",
      "pitch": 36,
      "time": 9.51592661458333
    },
    {
      "type": "note_off",
      "pitch": 42,
      "time": 9.520828572916663
    },
    {
      "type": "note_on",
      "pitch": 36,
      "velocity": 55,
      "time": 9.583328541666663
    },
    {
      "type": "note_off",
      "pitch": 36,
      "time": 9.683818687499997
    },
    {
      "type": "note_on",
      "pitch": 42,
      "velocity": 117,
      "time": 9.715681416666664
    },
    {
      "type": "note_off",
      "pitch": 42,
      "time": 9.816171562499997
    },
    {
      "type": "note_on",
      "pitch": 38,
      "velocity": 127,
      "time": 10.020828322916664
    },
    {
      "type": "note_on",
      "pitch": 42,
      "velocity": 127,
      "time": 10.03430870833333
    },
    {
      "type": "note_off",
      "pitch": 38,
      "time": 10.122543958333331
    },
    {
      "type": "note_off",
      "pitch": 42,
      "time": 10.134798854166664
    },
    {
      "type": "note_on",
      "pitch": 42,
      "velocity": 88,
      "time": 10.32474973958333
    },
    {
      "type": "note_off",
      "pitch": 42,
      "time": 10.425239885416664
    },
    {
      "type": "note_on",
      "pitch": 42,
      "velocity": 99,
      "time": 10.607837833333331
    },
    {
      "type": "note_off",
      "pitch": 42,
      "time": 10.708327979166665
    },
    {
      "type": "note_on",
      "pitch": 38,
      "velocity": 37,
      "time": 10.776955395833332
    },
    {
      "type": "note_on",
      "pitch": 38,
      "velocity": 37,
      "time": 10.818622041666664
    },
    {
      "type": "note_off",
      "pitch": 38,
      "time": 10.818622041666664
    },
    {
      "type": "note_on",
      "pitch": 38,
      "velocity": 35,
      "time": 10.848033791666664
    },
    {
      "type": "note_off",
      "pitch": 38,
      "time": 10.848033791666664
    },
    {
      "type": "note_on",
      "pitch": 38,
      "velocity": 23,
      "time": 10.874994562499998
    },
    {
      "type": "note_off",
      "pitch": 38,
      "time": 10.874994562499998
    },
    {
      "type": "note_off",
      "pitch": 38,
      "time": 10.877445541666665
    },
    {
      "type": "note_on",
      "pitch": 36,
      "velocity": 76,
      "time": 10.890925927083332
    },
    {
      "type": "note_on",
      "pitch": 42,
      "velocity": 102,
      "time": 10.898278864583332
    },
    {
      "type": "note_off",
      "pitch": 36,
      "time": 10.9926415625
    },
    {
      "type": "note_off",
      "pitch": 42,
      "time": 10.9999945
    },
    {
      "type": "note_on",
      "pitch": 38,
      "velocity": 127,
      "time": 11.178915979166666
    },
    {
      "type": "note_on",
      "pitch": 42,
      "velocity": 127,
      "time": 11.183817937499999
    },
    {
      "type": "note_off",
      "pitch": 38,
      "time": 11.280631614583331
    },
    {
      "type": "note_off",
      "pitch": 42,
      "time": 11.28430808333333
    },
    {
      "type": "note_on",
      "pitch": 42,
      "velocity": 83,
      "time": 11.479160927083331
    },
    {
      "type": "note_off",
      "pitch": 42,
      "time": 11.580876562499999
    },
    {
      "type": "note_on",
      "pitch": 36,
      "velocity": 79,
      "time": 11.773278427083332
    },
    {
      "type": "note_on",
      "pitch": 42,
      "velocity": 127,
      "time": 11.776954895833331
    },
    {
      "type": "note_off",
      "pitch": 36,
      "time": 11.873768572916664
    },
    {
      "type": "note_off",
      "pitch": 42,
      "time": 11.878670531249997
    },
    {
      "type": "note_on",
      "pitch": 36,
      "velocity": 53,
      "time": 11.94607245833333
    },
    {
      "type": "note_off",
      "pitch": 36,
      "time": 12.047788093749997
    },
    {
      "type": "note_on",
      "pitch": 42,
      "velocity": 106,
      "time": 12.075974354166663
    },
    {
      "type": "note_off",
      "pitch": 42,
      "time": 12.17768998958333
    },
    {
      "type": "note_on",
      "pitch": 38,
      "velocity": 127,
      "time": 12.379895770833329
    },
    {
      "type": "note_on",
      "pitch": 42,
      "velocity": 127,
      "time": 12.386023218749996
    },
    {
      "type": "note_off",
      "pitch": 38,
      "time": 12.480385916666663
    },
    {
      "type": "note_off",
      "pitch": 42,
      "time": 12.487738854166663
    },
    {
      "type": "note_on",
      "pitch": 42,
      "velocity": 109,
      "time": 12.67033680208333
    },
    {
      "type": "note_off",
      "pitch": 42,
      "time": 12.770826947916664
    },
    {
      "type": "note_on",
      "pitch": 38,
      "velocity": 23,
      "time": 12.84680730208333
    },
    {
      "type": "note_on",
      "pitch": 38,
      "velocity": 26,
      "time": 12.879895520833331
    },
    {
      "type": "note_off",
      "pitch": 38,
      "time": 12.879895520833331
    },
    {
      "type": "note_off",
      "pitch": 38,
      "time": 12.947297447916664
    },
    {
      "type": "note_on",
      "pitch": 42,
      "velocity": 106,
      "time": 12.952199406249997
    },
    {
      "type": "note_off",
      "pitch": 42,
      "time": 13.052689552083331
    },
    {
      "type": "note_on",
      "pitch": 38,
      "velocity": 29,
      "time": 13.104160114583332
    },
    {
      "type": "note_off",
      "pitch": 38,
      "time": 13.205875749999999
    },
    {
      "type": "note_on",
      "pitch": 36,
      "velocity": 75,
      "time": 13.230385541666665
    },
    {
      "type": "note_on",
      "pitch": 42,
      "velocity": 96,
      "time": 13.232836520833333
    },
    {
      "type": "note_off",
      "pitch": 36,
      "time": 13.330875687499999
    },
    {
      "type": "note_off",
      "pitch": 42,
      "time": 13.334552156249998
    },
    {
      "type": "note_on",
      "pitch": 40,
      "velocity": 127,
      "time": 13.519601083333331
    },
    {
      "type": "note_on",
      "pitch": 42,
      "velocity": 127,
      "time": 13.520826572916665
    },
    {
      "type": "note_off",
      "pitch": 40,
      "time": 13.621316718749998
    },
    {
      "type": "note_off",
      "pitch": 42,
      "time": 13.621316718749998
    },
    {
      "type": "note_on",
      "pitch": 36,
      "velocity": 9,
      "time": 13.789208791666665
    },
    {
      "type": "note_on",
      "pitch": 42,
      "velocity": 115,
      "time": 13.812493093749998
    },
    {
      "type": "note_off",
      "pitch": 36,
      "time": 13.889698937499999
    },
    {
      "type": "note_off",
      "pitch": 42,
      "time": 13.914208729166665
    },
    {
      "type": "note_on",
      "pitch": 36,
      "velocity": 86,
      "time": 14.113963531249999
    },
    {
      "type": "note_on",
      "pitch": 42,
      "velocity": 127,
      "time": 14.116414510416666
    },
    {
      "type": "note_on",
      "pitch": 36,
      "velocity": 7,
      "time": 14.20955171875
    },
    {
      "type": "note_off",
      "pitch": 36,
      "time": 14.20955171875
    },
    {
      "type": "note_off",
      "pitch": 36,
      "time": 14.215679166666666
    },
    {
      "type": "note_off",
      "pitch": 42,
      "time": 14.218130145833333
    },
    {
      "type": "note_on",
      "pitch": 36,
      "velocity": 60,
      "time": 14.289208541666667
    },
    {
      "type": "note_off",
      "pitch": 36,
      "time": 14.310041864583335
    },
    {
      "type": "note_on",
      "pitch": 42,
      "velocity": 103,
      "time": 14.424012395833335
    },
    {
      "type": "note_off",
      "pitch": 42,
      "time": 14.524502541666669
    },
    {
      "type": "note_on",
      "pitch": 38,
      "velocity": 127,
      "time": 14.724257343750002
    },
    {
      "type": "note_on",
      "pitch": 42,
      "velocity": 127,
      "time": 14.730384791666669
    },
    {
      "type": "note_off",
      "pitch": 38,
      "time": 14.824747489583336
    },
    {
      "type": "note_off",
      "pitch": 42,
      "time": 14.832100427083336
    },
    {
      "type": "note_on",
      "pitch": 42,
      "velocity": 98,
      "time": 15.019600333333337
    },
    {
      "type": "note_off",
      "pitch": 42,
      "time": 15.121315968750004
    },
    {
      "type": "note_on",
      "pitch": 42,
      "velocity": 101,
      "time": 15.301462937500004
    },
    {
      "type": "note_off",
      "pitch": 42,
      "time": 15.403178572916671
    },
    {
      "type": "note_on",
      "pitch": 38,
      "velocity": 21,
      "time": 15.474256968750005
    },
    {
      "type": "note_on",
      "pitch": 38,
      "velocity": 25,
      "time": 15.518374593750005
    },
    {
      "type": "note_off",
      "pitch": 38,
      "time": 15.518374593750005
    },
    {
      "type": "note_on",
      "pitch": 38,
      "velocity": 20,
      "time": 15.546560854166671
    },
    {
      "type": "note_off",
      "pitch": 38,
      "time": 15.546560854166671
    },
    {
      "type": "note_off",
      "pitch": 38,
      "time": 15.574747114583337
    },
    {
      "type": "note_on",
      "pitch": 36,
      "velocity": 77,
      "time": 15.582100052083337
    },
    {
      "type": "note_on",
      "pitch": 42,
      "velocity": 77,
      "time": 15.593129458333337
    },
    {
      "type": "note_off",
      "pitch": 36,
      "time": 15.683815687500003
    },
    {
      "type": "note_off",
      "pitch": 42,
      "time": 15.694845093750002
    },
    {
      "type": "note_on",
      "pitch": 38,
      "velocity": 120,
      "time": 15.879894020833335
    },
    {
      "type": "note_on",
      "pitch": 42,
      "velocity": 127,
      "time": 15.886021468750002
    },
    {
      "type": "note_off",
      "pitch": 38,
      "time": 15.980384166666669
    },
    {
      "type": "note_off",
      "pitch": 42,
      "time": 15.986511614583335
    },
    {
      "type": "note_on",
      "pitch": 36,
      "velocity": 12,
      "time": 16.147050750000002
    },
    {
      "type": "note_on",
      "pitch": 42,
      "velocity": 93,
      "time": 16.18013896875
    },
    {
      "type": "note_off",
      "pitch": 36,
      "time": 16.248766385416666
    },
    {
      "type": "note_off",
      "pitch": 42,
      "time": 16.281854604166664
    },
    {
      "type": "note_on",
      "pitch": 36,
      "velocity": 78,
      "time": 16.485285875
    },
    {
      "type": "note_on",
      "pitch": 42,
      "velocity": 127,
      "time": 16.485285875
    },
    {
      "type": "note_off",
      "pitch": 36,
      "time": 16.585776020833332
    },
    {
      "type": "note_off",
      "pitch": 42,
      "time": 16.585776020833332
    },
    {
      "type": "note_on",
      "pitch": 36,
      "velocity": 50,
      "time": 16.656854416666665
    },
    {
      "type": "note_off",
      "pitch": 36,
      "time": 16.7573445625
    },
    {
      "type": "note_on",
      "pitch": 42,
      "velocity": 107,
      "time": 16.778177885416664
    },
    {
      "type": "note_off",
      "pitch": 42,
      "time": 16.87989352083333
    },
    {
      "type": "note_on",
      "pitch": 38,
      "velocity": 127,
      "time": 17.0808738125
    },
    {
      "type": "note_on",
      "pitch": 42,
      "velocity": 127,
      "time": 17.08945223958333
    },
    {
      "type": "note_off",
      "pitch": 38,
      "time": 17.181363958333332
    },
    {
      "type": "note_off",
      "pitch": 42,
      "time": 17.189942385416664
    },
    {
      "type": "note_on",
      "pitch": 42,
      "velocity": 110,
      "time": 17.377442291666664
    },
    {
      "type": "note_off",
      "pitch": 42,
      "time": 17.477932437499998
    },
    {
      "type": "note_on",
      "pitch": 38,
      "velocity": 30,
      "time": 17.564942197916665
    },
    {
      "type": "note_on",
      "pitch": 38,
      "velocity": 21,
      "time": 17.61151080208333
    },
    {
      "type": "note_off",
      "pitch": 38,
      "time": 17.61151080208333
    },
    {
      "type": "note_on",
      "pitch": 38,
      "velocity": 15,
      "time": 17.64827548958333
    },
    {
      "type": "note_off",
      "pitch": 38,
      "time": 17.64827548958333
    },
    {
      "type": "note_on",
      "pitch": 42,
      "velocity": 106,
      "time": 17.650726468749998
    },
    {
      "type": "note_off",
      "pitch": 38,
      "time": 17.66543234375
    },
    {
      "type": "note_off",
      "pitch": 42,
      "time": 17.752442104166665
    },
    {
      "type": "note_on",
      "pitch": 38,
      "velocity": 27,
      "time": 17.83577539583333
    },
    {
      "type": "note_off",
      "pitch": 38,
      "time": 17.936265541666664
    },
    {
      "type": "note_on",
      "pitch": 36,
      "velocity": 75,
      "time": 17.947294947916664
    },
    {
      "type": "note_on",
      "pitch": 42,
      "velocity": 75,
      "time": 17.950971416666665
    },
    {
      "type": "note_off",
      "pitch": 36,
      "time": 18.047785093749997
    },
    {
      "type": "note_off",
      "pitch": 42,
      "time": 18.052687052083332
    },
    {
      "type": "note_on",
      "pitch": 38,
      "velocity": 127,
      "time": 18.229157552083333
    },
    {
      "type": "note_on",
      "pitch": 42,
      "velocity": 127,
      "time": 18.23651048958333
    },
    {
      "type": "note_off",
      "pitch": 38,
      "time": 18.330873187499996
    },
    {
      "type": "note_off",
      "pitch": 42,
      "time": 18.338226124999995
    },
    {
      "type": "note_on",
      "pitch": 36,
      "velocity": 9,
      "time": 18.481608406249993
    },
    {
      "type": "note_on",
      "pitch": 42,
      "velocity": 99,
      "time": 18.523275052083328
    },
    {
      "type": "note_off",
      "pitch": 36,
      "time": 18.582098552083327
    },
    {
      "type": "note_off",
      "pitch": 42,
      "time": 18.62376519791666
    },
    {
      "type": "note_on",
      "pitch": 36,
      "velocity": 8,
      "time": 18.62989264583333
    },
    {
      "type": "note_off",
      "pitch": 36,
      "time": 18.730382791666663
    },
    {
      "type": "note_on",
      "pitch": 36,
      "velocity": 77,
      "time": 18.818618041666664
    },
    {
      "type": "note_on",
      "pitch": 42,
      "velocity": 127,
      "time": 18.830872937499997
    },
    {
      "type": "note_off",
      "pitch": 36,
      "time": 18.92033367708333
    },
    {
      "type": "note_off",
      "pitch": 42,
      "time": 18.932588572916664
    },
    {
      "type": "note_on",
      "pitch": 36,
      "velocity": 51,
      "time": 18.995088541666664
    },
    {
      "type": "note_off",
      "pitch": 36,
      "time": 19.09680417708333
    },
    {
      "type": "note_on",
      "pitch": 42,
      "velocity": 117,
      "time": 19.127441416666667
    },
    {
      "type": "note_off",
      "pitch": 42,
      "time": 19.2279315625
    },
    {
      "type": "note_on",
      "pitch": 38,
      "velocity": 127,
      "time": 19.436264791666666
    },
    {
      "type": "note_on",
      "pitch": 42,
      "velocity": 127,
      "time": 19.43749028125
    },
    {
      "type": "note_off",
      "pitch": 38,
      "time": 19.5367549375
    },
    {
      "type": "note_off",
      "pitch": 42,
      "time": 19.5367549375
    },
    {
      "type": "note_on",
      "pitch": 42,
      "velocity": 111,
      "time": 19.726705822916667
    },
    {
      "type": "note_off",
      "pitch": 42,
      "time": 19.828421458333334
    },
    {
      "type": "note_on",
      "pitch": 42,
      "velocity": 103,
      "time": 20.0220488125
    },
    {
      "type": "note_off",
      "pitch": 42,
      "time": 20.123764447916667
    },
    {
      "type": "note_on",
      "pitch": 38,
      "velocity": 31,
      "time": 20.186264416666667
    },
    {
      "type": "note_on",
      "pitch": 38,
      "velocity": 28,
      "time": 20.229156552083335
    },
    {
      "type": "note_off",
      "pitch": 38,
      "time": 20.229156552083335
    },
    {
      "type": "note_on",
      "pitch": 38,
      "velocity": 24,
      "time": 20.258568302083336
    },
    {
      "type": "note_off",
      "pitch": 38,
      "time": 20.258568302083336
    },
    {
      "type": "note_off",
      "pitch": 38,
      "time": 20.286754562500004
    },
    {
      "type": "note_on",
      "pitch": 36,
      "velocity": 77,
      "time": 20.30758788541667
    },
    {
      "type": "note_on",
      "pitch": 42,
      "velocity": 74,
      "time": 20.321068270833337
    },
    {
      "type": "note_off",
      "pitch": 36,
      "time": 20.408078031250003
    },
    {
      "type": "note_off",
      "pitch": 42,
      "time": 20.422783906250004
    },
    {
      "type": "note_on",
      "pitch": 40,
      "velocity": 122,
      "time": 20.595577937500003
    },
    {
      "type": "note_on",
      "pitch": 42,
      "velocity": 127,
      "time": 20.602930875000002
    },
    {
      "type": "note_off",
      "pitch": 40,
      "time": 20.696068083333337
    },
    {
      "type": "note_off",
      "pitch": 42,
      "time": 20.70464651041667
    },
    {
      "type": "note_on",
      "pitch": 42,
      "velocity": 118,
      "time": 20.898273864583334
    },
    {
      "type": "note_off",
      "pitch": 42,
      "time": 20.998764010416668
    },
    {
      "type": "note_on",
      "pitch": 36,
      "velocity": 79,
      "time": 21.20096979166667
    },
    {
      "type": "note_on",
      "pitch": 42,
      "velocity": 104,
      "time": 21.205871750000004
    },
    {
      "type": "note_off",
      "pitch": 36,
      "time": 21.302685427083336
    },
    {
      "type": "note_off",
      "pitch": 42,
      "time": 21.30758738541667
    },
    {
      "type": "note_on",
      "pitch": 36,
      "velocity": 61,
      "time": 21.376214802083336
    },
    {
      "type": "note_off",
      "pitch": 36,
      "time": 21.477930437500003
    },
    {
      "type": "note_on",
      "pitch": 42,
      "velocity": 87,
      "time": 21.49508729166667
    },
    {
      "type": "note_off",
      "pitch": 42,
      "time": 21.59680292708334
    },
    {
      "type": "note_on",
      "pitch": 38,
      "velocity": 127,
      "time": 21.77327342708334
    },
    {
      "type": "note_on",
      "pitch": 42,
      "velocity": 127,
      "time": 21.78430283333334
    },
    {
      "type": "note_off",
      "pitch": 38,
      "time": 21.873763572916673
    },
    {
      "type": "note_off",
      "pitch": 42,
      "time": 21.886018468750006
    },
    {
      "type": "note_on",
      "pitch": 42,
      "velocity": 116,
      "time": 22.06861641666667
    },
    {
      "type": "note_off",
      "pitch": 42,
      "time": 22.17033205208334
    },
    {
      "type": "note_on",
      "pitch": 38,
      "velocity": 28,
      "time": 22.23283202083334
    },
    {
      "type": "note_on",
      "pitch": 38,
      "velocity": 30,
      "time": 22.28430258333334
    },
    {
      "type": "note_off",
      "pitch": 38,
      "time": 22.28430258333334
    },
    {
      "type": "note_on",
      "pitch": 38,
      "velocity": 29,
      "time": 22.31371433333334
    },
    {
      "type": "note_off",
      "pitch": 38,
      "time": 22.31371433333334
    },
    {
      "type": "note_on",
      "pitch": 38,
      "velocity": 23,
      "time": 22.334547656250006
    },
    {
      "type": "note_off",
      "pitch": 38,
      "time": 22.334547656250006
    },
    {
      "type": "note_off",
      "pitch": 38,
      "time": 22.334547656250006
    },
    {
      "type": "note_on",
      "pitch": 42,
      "velocity": 70,
      "time": 22.352930000000008
    },
    {
      "type": "note_off",
      "pitch": 42,
      "time": 22.45587112500001
    },
    {
      "type": "note_on",
      "pitch": 38,
      "velocity": 30,
      "time": 22.530625989583342
    },
    {
      "type": "note_off",
      "pitch": 38,
      "time": 22.631116135416676
    },
    {
      "type": "note_on",
      "pitch": 42,
      "velocity": 87,
      "time": 22.638469072916674
    },
    {
      "type": "note_on",
      "pitch": 36,
      "velocity": 78,
      "time": 22.64092005208334
    },
    {
      "type": "note_off",
      "pitch": 36,
      "time": 22.74018470833334
    },
    {
      "type": "note_off",
      "pitch": 42,
      "time": 22.74018470833334
    },
    {
      "type": "note_on",
      "pitch": 40,
      "velocity": 127,
      "time": 22.92400814583334
    },
    {
      "type": "note_on",
      "pitch": 42,
      "velocity": 127,
      "time": 22.926459125000008
    },
    {
      "type": "note_off",
      "pitch": 40,
      "time": 23.025723781250008
    },
    {
      "type": "note_off",
      "pitch": 42,
      "time": 23.028174760416675
    },
    {
      "type": "note_on",
      "pitch": 36,
      "velocity": 11,
      "time": 23.19116487500001
    },
    {
      "type": "note_on",
      "pitch": 42,
      "velocity": 124,
      "time": 23.224253093750008
    },
    {
      "type": "note_off",
      "pitch": 36,
      "time": 23.292880510416673
    },
    {
      "type": "note_off",
      "pitch": 42,
      "time": 23.32596872916667
    },
    {
      "type": "note_on",
      "pitch": 36,
      "velocity": 76,
      "time": 23.52082157291667
    },
    {
      "type": "note_on",
      "pitch": 42,
      "velocity": 104,
      "time": 23.52817451041667
    },
    {
      "type": "note_off",
      "pitch": 36,
      "time": 23.622537208333334
    },
    {
      "type": "note_off",
      "pitch": 42,
      "time": 23.628664656250002
    },
    {
      "type": "note_on",
      "pitch": 36,
      "velocity": 50,
      "time": 23.691164625000003
    },
    {
      "type": "note_off",
      "pitch": 36,
      "time": 23.79288026041667
    },
    {
      "type": "note_on",
      "pitch": 42,
      "velocity": 98,
      "time": 23.817390052083336
    },
    {
      "type": "note_off",
      "pitch": 42,
      "time": 23.91788019791667
    },
    {
      "type": "note_on",
      "pitch": 38,
      "velocity": 127,
      "time": 24.115184020833336
    },
    {
      "type": "note_on",
      "pitch": 42,
      "velocity": 127,
      "time": 24.122536958333335
    },
    {
      "type": "note_off",
      "pitch": 38,
      "time": 24.21567416666667
    },
    {
      "type": "note_off",
      "pitch": 42,
      "time": 24.22302710416667
    },
    {
      "type": "note_on",
      "pitch": 42,
      "velocity": 107,
      "time": 24.412977989583336
    },
    {
      "type": "note_off",
      "pitch": 42,
      "time": 24.514693625000003
    },
    {
      "type": "note_on",
      "pitch": 42,
      "velocity": 101,
      "time": 24.707095489583338
    },
    {
      "type": "note_off",
      "pitch": 42,
      "time": 24.808811125000005
    },
    {
      "type": "note_on",
      "pitch": 38,
      "velocity": 27,
      "time": 24.87253658333334
    },
    {
      "type": "note_on",
      "pitch": 38,
      "velocity": 17,
      "time": 24.914203229166674
    },
    {
      "type": "note_off",
      "pitch": 38,
      "time": 24.914203229166674
    },
    {
      "type": "note_off",
      "pitch": 38,
      "time": 24.973026729166673
    },
    {
      "type": "note_on",
      "pitch": 36,
      "velocity": 73,
      "time": 24.992634562500005
    },
    {
      "type": "note_on",
      "pitch": 42,
      "velocity": 70,
      "time": 25.003663968750004
    },
    {
      "type": "note_off",
      "pitch": 36,
      "time": 25.093124708333338
    },
    {
      "type": "note_off",
      "pitch": 42,
      "time": 25.10537960416667
    },
    {
      "type": "note_on",
      "pitch": 38,
      "velocity": 127,
      "time": 25.291654020833338
    },
    {
      "type": "note_on",
      "pitch": 42,
      "velocity": 127,
      "time": 25.294105000000005
    },
    {
      "type": "note_off",
      "pitch": 38,
      "time": 25.39214416666667
    },
    {
      "type": "note_off",
      "pitch": 42,
      "time": 25.395820635416673
    },
    {
      "type": "note_on",
      "pitch": 42,
      "velocity": 127,
      "time": 25.595575437500006
    },
    {
      "type": "note_off",
      "pitch": 42,
      "time": 25.69606558333334
    },
    {
      "type": "note_on",
      "pitch": 36,
      "velocity": 80,
      "time": 25.89827136458334
    },
    {
      "type": "note_on",
      "pitch": 42,
      "velocity": 97,
      "time": 25.90562430208334
    },
    {
      "type": "note_off",
      "pitch": 36,
      "time": 25.998761510416674
    },
    {
      "type": "note_off",
      "pitch": 42,
      "time": 26.007339937500006
    },
    {
      "type": "note_on",
      "pitch": 36,
      "velocity": 54,
      "time": 26.068614416666673
    },
    {
      "type": "note_off",
      "pitch": 36,
      "time": 26.169104562500006
    },
    {
      "type": "note_on",
      "pitch": 42,
      "velocity": 85,
      "time": 26.209545718750007
    },
    {
      "type": "note_off",
      "pitch": 42,
      "time": 26.31003586458334
    },
    {
      "type": "note_on",
      "pitch": 38,
      "velocity": 127,
      "time": 26.48650636458334
    },
    {
      "type": "note_on",
      "pitch": 42,
      "velocity": 127,
      "time": 26.495084791666674
    },
    {
      "type": "note_off",
      "pitch": 38,
      "time": 26.586996510416675
    },
    {
      "type": "note_off",
      "pitch": 42,
      "time": 26.595574937500007
    },
    {
      "type": "note_on",
      "pitch": 42,
      "velocity": 125,
      "time": 26.779398375000007
    },
    {
      "type": "note_off",
      "pitch": 42,
      "time": 26.87988852083334
    },
    {
      "type": "note_on",
      "pitch": 38,
      "velocity": 19,
      "time": 26.944839468750008
    },
    {
      "type": "note_on",
      "pitch": 38,
      "velocity": 20,
      "time": 26.984055135416675
    },
    {
      "type": "note_off",
      "pitch": 38,
      "time": 26.984055135416675
    },
    {
      "type": "note_off",
      "pitch": 38,
      "time": 27.04532961458334
    },
    {
      "type": "note_on",
      "pitch": 42,
      "velocity": 124,
      "time": 27.068613916666674
    },
    {
      "type": "note_off",
      "pitch": 42,
      "time": 27.17032955208334
    },
    {
      "type": "note_on",
      "pitch": 38,
      "velocity": 23,
      "time": 27.252437354166673
    },
    {
      "type": "note_off",
      "pitch": 38,
      "time": 27.352927500000007
    },
    {
      "type": "note_on",
      "pitch": 36,
      "velocity": 73,
      "time": 27.360280437500005
    },
    {
      "type": "note_on",
      "pitch": 42,
      "velocity": 92,
      "time": 27.363956906250007
    },
    {
      "type": "note_off",
      "pitch": 36,
      "time": 27.46077058333334
    },
    {
      "type": "note_off",
      "pitch": 42,
      "time": 27.465672541666674
    },
    {
      "type": "note_on",
      "pitch": 38,
      "velocity": 127,
      "time": 27.645819510416676
    },
    {
      "type": "note_on",
      "pitch": 42,
      "velocity": 127,
      "time": 27.65072146875001
    },
    {
      "type": "note_off",
      "pitch": 38,
      "time": 27.747535145833343
    },
    {
      "type": "note_off",
      "pitch": 42,
      "time": 27.752437104166678
    },
    {
      "type": "note_on",
      "pitch": 36,
      "velocity": 11,
      "time": 27.903172322916678
    },
    {
      "type": "note_on",
      "pitch": 42,
      "velocity": 113,
      "time": 27.944838968750012
    },
    {
      "type": "note_off",
      "pitch": 36,
      "time": 28.00366246875001
    },
    {
      "type": "note_off",
      "pitch": 42,
      "time": 28.04655460416668
    },
    {
      "type": "note_on",
      "pitch": 36,
      "velocity": 92,
      "time": 28.243858427083346
    },
    {
      "type": "note_on",
      "pitch": 42,
      "velocity": 127,
      "time": 28.243858427083346
    },
    {
      "type": "note_off",
      "pitch": 36,
      "time": 28.345574062500013
    },
    {
      "type": "note_off",
      "pitch": 42,
      "time": 28.345574062500013
    },
    {
      "type": "note_on",
      "pitch": 36,
      "velocity": 65,
      "time": 28.41052501041668
    },
    {
      "type": "note_off",
      "pitch": 36,
      "time": 28.512240645833348
    },
    {
      "type": "note_on",
      "pitch": 42,
      "velocity": 108,
      "time": 28.54655435416668
    },
    {
      "type": "note_off",
      "pitch": 42,
      "time": 28.648269989583348
    },
    {
      "type": "note_on",
      "pitch": 38,
      "velocity": 127,
      "time": 28.832093427083347
    },
    {
      "type": "note_on",
      "pitch": 42,
      "velocity": 127,
      "time": 28.84067185416668
    },
    {
      "type": "note_off",
      "pitch": 38,
      "time": 28.93258357291668
    },
    {
      "type": "note_off",
      "pitch": 42,
      "time": 28.942387489583346
    },
    {
      "type": "note_on",
      "pitch": 42,
      "velocity": 114,
      "time": 29.132338375000014
    },
    {
      "type": "note_off",
      "pitch": 42,
      "time": 29.232828520833348
    },
    {
      "type": "note_on",
      "pitch": 42,
      "velocity": 110,
      "time": 29.425230385416683
    },
    {
      "type": "note_off",
      "pitch": 42,
      "time": 29.525720531250016
    },
    {
      "type": "note_on",
      "pitch": 38,
      "velocity": 33,
      "time": 29.607828333333348
    },
    {
      "type": "note_on",
      "pitch": 38,
      "velocity": 8,
      "time": 29.683808687500015
    },
    {
      "type": "note_off",
      "pitch": 38,
      "time": 29.683808687500015
    },
    {
      "type": "note_off",
      "pitch": 38,
      "time": 29.70831847916668
    },
    {
      "type": "note_on",
      "pitch": 36,
      "velocity": 85,
      "time": 29.713220437500016
    },
    {
      "type": "note_on",
      "pitch": 42,
      "velocity": 81,
      "time": 29.71812239583335
    },
    {
      "type": "note_off",
      "pitch": 36,
      "time": 29.81371058333335
    },
    {
      "type": "note_off",
      "pitch": 42,
      "time": 29.818612541666685
    },
    {
      "type": "note_on",
      "pitch": 40,
      "velocity": 127,
      "time": 30.00733793750002
    },
    {
      "type": "note_on",
      "pitch": 42,
      "velocity": 127,
      "time": 30.01101440625002
    },
    {
      "type": "note_off",
      "pitch": 40,
      "time": 30.107828083333352
    },
    {
      "type": "note_off",
      "pitch": 42,
      "time": 30.112730041666687
    },
    {
      "type": "note_on",
      "pitch": 36,
      "velocity": 15,
      "time": 30.287975052083354
    },
    {
      "type": "note_on",
      "pitch": 42,
      "velocity": 118,
      "time": 30.307582885416686
    },
    {
      "type": "note_off",
      "pitch": 36,
      "time": 30.388465197916688
    },
    {
      "type": "note_off",
      "pitch": 42,
      "time": 30.409298520833353
    },
    {
      "type": "note_on",
      "pitch": 36,
      "velocity": 8,
      "time": 30.55880825000002
    },
    {
      "type": "note_on",
      "pitch": 36,
      "velocity": 88,
      "time": 30.598023916666687
    },
    {
      "type": "note_off",
      "pitch": 36,
      "time": 30.598023916666687
    },
    {
      "type": "note_on",
      "pitch": 42,
      "velocity": 127,
      "time": 30.607827833333353
    },
    {
      "type": "note_off",
      "pitch": 36,
      "time": 30.659298395833353
    },
    {
      "type": "note_off",
      "pitch": 42,
      "time": 30.70954346875002
    },
    {
      "type": "note_on",
      "pitch": 36,
      "velocity": 61,
      "time": 30.767141479166686
    },
    {
      "type": "note_off",
      "pitch": 36,
      "time": 30.86763162500002
    },
    {
      "type": "note_on",
      "pitch": 42,
      "velocity": 100,
      "time": 30.89704337500002
    },
    {
      "type": "note_off",
      "pitch": 42,
      "time": 30.998759010416688
    },
    {
      "type": "note_on",
      "pitch": 38,
      "velocity": 127,
      "time": 31.18013146875002
    },
    {
      "type": "note_on",
      "pitch": 42,
      "velocity": 127,
      "time": 31.18870989583335
    },
    {
      "type": "note_off",
      "pitch": 38,
      "time": 31.280621614583353
    },
    {
      "type": "note_off",
      "pitch": 42,
      "time": 31.29042553125002
    },
    {
      "type": "note_on",
      "pitch": 42,
      "velocity": 126,
      "time": 31.47792543750002
    },
    {
      "type": "note_off",
      "pitch": 42,
      "time": 31.578415583333353
    },
    {
      "type": "note_on",
      "pitch": 38,
      "velocity": 29,
      "time": 31.638464572916686
    },
    {
      "type": "note_on",
      "pitch": 38,
      "velocity": 14,
      "time": 31.700964541666686
    },
    {
      "type": "note_off",
      "pitch": 38,
      "time": 31.700964541666686
    },
    {
      "type": "note_off",
      "pitch": 38,
      "time": 31.73895471875002
    },
    {
      "type": "note_on",
      "pitch": 42,
      "velocity": 92,
      "time": 31.765915489583353
    },
    {
      "type": "note_off",
      "pitch": 42,
      "time": 31.86763112500002
    },
    {
      "type": "note_on",
      "pitch": 38,
      "velocity": 31,
      "time": 31.94728794791669
    },
    {
      "type": "note_off",
      "pitch": 38,
      "time": 32.04900358333335
    },
    {
      "type": "note_on",
      "pitch": 36,
      "velocity": 74,
      "time": 32.06125847916669
    },
    {
      "type": "note_on",
      "pitch": 42,
      "velocity": 78,
      "time": 32.06125847916669
    },
    {
      "type": "note_off",
      "pitch": 36,
      "time": 32.16174862500002
    },
    {
      "type": "note_off",
      "pitch": 42,
      "time": 32.162974114583356
    },
    {
      "type": "note_on",
      "pitch": 38,
      "velocity": 127,
      "time": 32.35660146875002
    },
    {
      "type": "note_on",
      "pitch": 42,
      "velocity": 127,
      "time": 32.36395440625002
    },
    {
      "type": "note_off",
      "pitch": 38,
      "time": 32.457091614583355
    },
    {
      "type": "note_off",
      "pitch": 42,
      "time": 32.46567004166669
    },
    {
      "type": "note_on",
      "pitch": 36,
      "velocity": 13,
      "time": 32.62866015625002
    },
    {
      "type": "note_on",
      "pitch": 42,
      "velocity": 118,
      "time": 32.65316994791669
    },
    {
      "type": "note_off",
      "pitch": 36,
      "time": 32.729150302083355
    },
    {
      "type": "note_off",
      "pitch": 42,
      "time": 32.75366009375002
    },
    {
      "type": "note_on",
      "pitch": 36,
      "velocity": 83,
      "time": 32.943610979166685
    },
    {
      "type": "note_on",
      "pitch": 42,
      "velocity": 127,
      "time": 32.95709136458335
    },
    {
      "type": "note_off",
      "pitch": 36,
      "time": 33.04410112500002
    },
    {
      "type": "note_off",
      "pitch": 42,
      "time": 33.058807000000016
    },
    {
      "type": "note_on",
      "pitch": 36,
      "velocity": 62,
      "time": 33.11885598958335
    },
    {
      "type": "note_off",
      "pitch": 36,
      "time": 33.219346135416686
    },
    {
      "type": "note_on",
      "pitch": 42,
      "velocity": 105,
      "time": 33.254885333333355
    },
    {
      "type": "note_off",
      "pitch": 42,
      "time": 33.35660096875002
    },
    {
      "type": "note_on",
      "pitch": 38,
      "velocity": 127,
      "time": 33.54287538541669
    },
    {
      "type": "note_on",
      "pitch": 42,
      "velocity": 127,
      "time": 33.55513028125003
    },
    {
      "type": "note_off",
      "pitch": 38,
      "time": 33.643365531250026
    },
    {
      "type": "note_off",
      "pitch": 42,
      "time": 33.65562042708336
    },
    {
      "type": "note_on",
      "pitch": 42,
      "velocity": 104,
      "time": 33.848022291666695
    },
    {
      "type": "note_off",
      "pitch": 42,
      "time": 33.94973792708336
    },
    {
      "type": "note_on",
      "pitch": 42,
      "velocity": 127,
      "time": 34.14459077083336
    },
    {
      "type": "note_off",
      "pitch": 42,
      "time": 34.24630640625003
    },
    {
      "type": "note_on",
      "pitch": 38,
      "velocity": 23,
      "time": 34.29900245833336
    },
    {
      "type": "note_on",
      "pitch": 38,
      "velocity": 22,
      "time": 34.33699263541669
    },
    {
      "type": "note_off",
      "pitch": 38,
      "time": 34.33699263541669
    },
    {
      "type": "note_on",
      "pitch": 38,
      "velocity": 26,
      "time": 34.36150242708336
    },
    {
      "type": "note_off",
      "pitch": 38,
      "time": 34.36150242708336
    },
    {
      "type": "note_on",
      "pitch": 38,
      "velocity": 28,
      "time": 34.386012218750025
    },
    {
      "type": "note_off",
      "pitch": 38,
      "time": 34.386012218750025
    },
    {
      "type": "note_off",
      "pitch": 38,
      "time": 34.40071809375002
    },
    {
      "type": "note_on",
      "pitch": 36,
      "velocity": 74,
      "time": 34.42277690625002
    },
    {
      "type": "note_on",
      "pitch": 42,
      "velocity": 95,
      "time": 34.433806312500025
    },
    {
      "type": "note_off",
      "pitch": 36,
      "time": 34.52449254166669
    },
    {
      "type": "note_off",
      "pitch": 42,
      "time": 34.53552194791669
    },
    {
      "type": "note_on",
      "pitch": 40,
      "velocity": 127,
      "time": 34.71811989583336
    },
    {
      "type": "note_on",
      "pitch": 42,
      "velocity": 127,
      "time": 34.72179636458336
    },
    {
      "type": "note_off",
      "pitch": 40,
      "time": 34.818610041666695
    },
    {
      "type": "note_off",
      "pitch": 42,
      "time": 34.82351200000003
    },
    {
      "type": "note_on",
      "pitch": 36,
      "velocity": 11,
      "time": 34.99385505208336
    },
    {
      "type": "note_on",
      "pitch": 42,
      "velocity": 127,
      "time": 35.007335437500025
    },
    {
      "type": "note_off",
      "pitch": 36,
      "time": 35.094345197916695
    },
    {
      "type": "note_off",
      "pitch": 42,
      "time": 35.10905107291669
    },
    {
      "type": "note_on",
      "pitch": 36,
      "velocity": 81,
      "time": 35.30022744791669
    },
    {
      "type": "note_on",
      "pitch": 42,
      "velocity": 104,
      "time": 35.31248234375003
    },
    {
      "type": "note_off",
      "pitch": 36,
      "time": 35.400717593750024
    },
    {
      "type": "note_off",
      "pitch": 42,
      "time": 35.41419797916669
    },
    {
      "type": "note_on",
      "pitch": 36,
      "velocity": 55,
      "time": 35.47302147916669
    },
    {
      "type": "note_off",
      "pitch": 36,
      "time": 35.57473711458336
    },
    {
      "type": "note_on",
      "pitch": 42,
      "velocity": 88,
      "time": 35.602923375000024
    },
    {
      "type": "note_off",
      "pitch": 42,
      "time": 35.70463901041669
    },
    {
      "type": "note_on",
      "pitch": 38,
      "velocity": 127,
      "time": 35.89336440625002
    },
    {
      "type": "note_on",
      "pitch": 42,
      "velocity": 127,
      "time": 35.89949185416669
    },
    {
      "type": "note_off",
      "pitch": 38,
      "time": 35.993854552083356
    },
    {
      "type": "note_off",
      "pitch": 42,
      "time": 36.00120748958336
    },
    {
      "type": "note_on",
      "pitch": 42,
      "velocity": 127,
      "time": 36.18503092708336
    },
    {
      "type": "note_off",
      "pitch": 42,
      "time": 36.28674656250003
    },
    {
      "type": "note_on",
      "pitch": 38,
      "velocity": 36,
      "time": 36.33821712500003
    },
    {
      "type": "note_off",
      "pitch": 38,
      "time": 36.43870727083336
    },
    {
      "type": "note_on",
      "pitch": 42,
      "velocity": 117,
      "time": 36.46811902083336
    },
    {
      "type": "note_off",
      "pitch": 42,
      "time": 36.56983465625003
    },
    {
      "type": "note_on",
      "pitch": 38,
      "velocity": 33,
      "time": 36.66909931250003
    },
    {
      "type": "note_on",
      "pitch": 36,
      "velocity": 76,
      "time": 36.76836396875003
    },
    {
      "type": "note_on",
      "pitch": 42,
      "velocity": 80,
      "time": 36.769589458333364
    },
    {
      "type": "note_off",
      "pitch": 38,
      "time": 36.769589458333364
    },
    {
      "type": "note_off",
      "pitch": 36,
      "time": 36.868854114583364
    },
    {
      "type": "note_off",
      "pitch": 42,
      "time": 36.872530583333365
    },
    {
      "type": "note_on",
      "pitch": 38,
      "velocity": 127,
      "time": 37.064932447916696
    },
    {
      "type": "note_on",
      "pitch": 42,
      "velocity": 127,
      "time": 37.071059895833365
    },
    {
      "type": "note_off",
      "pitch": 38,
      "time": 37.166648083333364
    },
    {
      "type": "note_off",
      "pitch": 42,
      "time": 37.17277553125003
    },
    {
      "type": "note_on",
      "pitch": 42,
      "velocity": 127,
      "time": 37.36395190625003
    },
    {
      "type": "note_off",
      "pitch": 42,
      "time": 37.4656675416667
    }
  ]
}